<svg xmlns="http://www.w3.org/2000/svg" viewBox="0 0 512 512">
  <rect width="512" height="512" fill="#0d2340"></rect>
  <rect x="76" y="120" width="360" height="280" rx="22" fill="#fff"></rect>
  <rect x="108" y="160" width="120" height="14" rx="3" fill="#0d2340"></rect>
  <rect x="108" y="190" width="296" height="6" rx="2" fill="#cfd9ea"></rect>
  <rect x="108" y="208" width="240" height="6" rx="2" fill="#cfd9ea"></rect>
  <rect x="108" y="226" width="280" height="6" rx="2" fill="#cfd9ea"></rect>
  <circle cx="120" cy="280" r="14" fill="#7dd3a4"></circle>
  <rect x="146" y="274" width="170" height="12" rx="3" fill="#0d2340"></rect>
  <rect x="328" y="270" width="76" height="20" rx="4" fill="#e8b04a"></rect>
  <circle cx="120" cy="320" r="14" fill="#7dd3a4"></circle>
  <rect x="146" y="314" width="200" height="12" rx="3" fill="#0d2340"></rect>
  <rect x="358" y="310" width="46" height="20" rx="4" fill="#7dd3a4"></rect>
  <circle cx="120" cy="360" r="14" stroke="#cfd9ea" stroke-width="3" fill="none"></circle>
  <rect x="146" y="354" width="150" height="12" rx="3" fill="#cfd9ea"></rect>
  <circle cx="436" cy="76" r="32" fill="#e8b04a"></circle>
</svg>